<svg viewBox="0 0 2826.0 2826.0" xmlns="http://www.w3.org/2000/svg"><line x1="135.0" y1="990.0" x2="135.0" y2="612.0" stroke="black" stroke-width="3" vector-effect="non-scaling-stroke"/><line x1="135.0" y1="612.0" x2="234.0" y2="540.0" stroke="black" stroke-width="3" vector-effect="non-scaling-stroke"/><line x1="234.0" y1="540.0" x2="306.0" y2="540.0" stroke="black" stroke-width="3" vector-effect="non-scaling-stroke"/><line x1="306.0" y1="540.0" x2="306.0" y2="657.0" stroke="black" stroke-width="3" vector-effect="non-scaling-stroke"/><line x1="306.0" y1="657.0" x2="405.0" y2="657.0" stroke="black" stroke-width="3" vector-effect="non-scaling-stroke"/><line x1="405.0" y1="657.0" x2="405.0" y2="738.0" stroke="black" stroke-width="3" vector-effect="non-scaling-stroke"/><line x1="405.0" y1="738.0" x2="486.0" y2="738.0" stroke="black" stroke-width="3" vector-effect="non-scaling-stroke"/><line x1="486.0" y1="738.0" x2="486.0" y2="576.0" stroke="black" stroke-width="3" vector-effect="non-scaling-stroke"/><line x1="486.0" y1="576.0" x2="378.0" y2="576.0" stroke="black" stroke-width="3" vector-effect="non-scaling-stroke"/><line x1="378.0" y1="576.0" x2="378.0" y2="324.0" stroke="black" stroke-width="3" vector-effect="non-scaling-stroke"/><line x1="378.0" y1="324.0" x2="405.0" y2="252.0" stroke="black" stroke-width="3" vector-effect="non-scaling-stroke"/><line x1="405.0" y1="252.0" x2="675.0" y2="252.0" stroke="black" stroke-width="3" vector-effect="non-scaling-stroke"/><line x1="675.0" y1="252.0" x2="675.0" y2="333.0" stroke="black" stroke-width="3" vector-effect="non-scaling-stroke"/><line x1="675.0" y1="333.0" x2="1215.0" y2="333.0" stroke="black" stroke-width="3" vector-effect="non-scaling-stroke"/><line x1="1215.0" y1="333.0" x2="1215.0" y2="180.0" stroke="black" stroke-width="3" vector-effect="non-scaling-stroke"/><line x1="1215.0" y1="180.0" x2="1350.0" y2="63.0" stroke="black" stroke-width="3" vector-effect="non-scaling-stroke"/><line x1="1350.0" y1="63.0" x2="1746.0" y2="63.0" stroke="black" stroke-width="3" vector-effect="non-scaling-stroke"/><line x1="1746.0" y1="63.0" x2="1926.0" y2="243.0" stroke="black" stroke-width="3" vector-effect="non-scaling-stroke"/><line x1="1926.0" y1="243.0" x2="1926.0" y2="333.0" stroke="black" stroke-width="3" vector-effect="non-scaling-stroke"/><line x1="1926.0" y1="333.0" x2="2061.0" y2="333.0" stroke="black" stroke-width="3" vector-effect="non-scaling-stroke"/><line x1="2061.0" y1="333.0" x2="2061.0" y2="207.0" stroke="black" stroke-width="3" vector-effect="non-scaling-stroke"/><line x1="2061.0" y1="207.0" x2="2214.0" y2="207.0" stroke="black" stroke-width="3" vector-effect="non-scaling-stroke"/><line x1="2214.0" y1="207.0" x2="2349.0" y2="342.0" stroke="black" stroke-width="3" vector-effect="non-scaling-stroke"/><line x1="2349.0" y1="342.0" x2="2349.0" y2="540.0" stroke="black" stroke-width="3" vector-effect="non-scaling-stroke"/><line x1="2349.0" y1="540.0" x2="2268.0" y2="540.0" stroke="black" stroke-width="3" vector-effect="non-scaling-stroke"/><line x1="2268.0" y1="540.0" x2="2268.0" y2="612.0" stroke="black" stroke-width="3" vector-effect="non-scaling-stroke"/><line x1="2268.0" y1="612.0" x2="2421.0" y2="612.0" stroke="black" stroke-width="3" vector-effect="non-scaling-stroke"/><line x1="2421.0" y1="612.0" x2="2421.0" y2="702.0" stroke="black" stroke-width="3" vector-effect="non-scaling-stroke"/><line x1="2421.0" y1="702.0" x2="2601.0" y2="702.0" stroke="black" stroke-width="3" vector-effect="non-scaling-stroke"/><line x1="2601.0" y1="702.0" x2="2601.0" y2="612.0" stroke="black" stroke-width="3" vector-effect="non-scaling-stroke"/><line x1="2601.0" y1="612.0" x2="2718.0" y2="612.0" stroke="black" stroke-width="3" vector-effect="non-scaling-stroke"/><line x1="2718.0" y1="612.0" x2="2826.0" y2="702.0" stroke="black" stroke-width="3" vector-effect="non-scaling-stroke"/><line x1="2826.0" y1="702.0" x2="2826.0" y2="819.0" stroke="black" stroke-width="3" vector-effect="non-scaling-stroke"/><line x1="2826.0" y1="819.0" x2="2736.0" y2="909.0" stroke="black" stroke-width="3" vector-effect="non-scaling-stroke"/><line x1="2736.0" y1="909.0" x2="2601.0" y2="909.0" stroke="black" stroke-width="3" vector-effect="non-scaling-stroke"/><line x1="2601.0" y1="909.0" x2="2601.0" y2="819.0" stroke="black" stroke-width="3" vector-effect="non-scaling-stroke"/><line x1="2601.0" y1="819.0" x2="2421.0" y2="819.0" stroke="black" stroke-width="3" vector-effect="non-scaling-stroke"/><line x1="2421.0" y1="819.0" x2="2421.0" y2="927.0" stroke="black" stroke-width="3" vector-effect="non-scaling-stroke"/><line x1="2421.0" y1="927.0" x2="2268.0" y2="927.0" stroke="black" stroke-width="3" vector-effect="non-scaling-stroke"/><line x1="2268.0" y1="927.0" x2="2268.0" y2="1098.0" stroke="black" stroke-width="3" vector-effect="non-scaling-stroke"/><line x1="2268.0" y1="1098.0" x2="2349.0" y2="1098.0" stroke="black" stroke-width="3" vector-effect="non-scaling-stroke"/><line x1="2349.0" y1="1098.0" x2="2349.0" y2="1296.0" stroke="black" stroke-width="3" vector-effect="non-scaling-stroke"/><line x1="2349.0" y1="1296.0" x2="2205.0" y2="1431.0" stroke="black" stroke-width="3" vector-effect="non-scaling-stroke"/><line x1="2205.0" y1="1431.0" x2="2070.0" y2="1431.0" stroke="black" stroke-width="3" vector-effect="non-scaling-stroke"/><line x1="2070.0" y1="1431.0" x2="2070.0" y2="1296.0" stroke="black" stroke-width="3" vector-effect="non-scaling-stroke"/><line x1="2070.0" y1="1296.0" x2="1989.0" y2="1296.0" stroke="black" stroke-width="3" vector-effect="non-scaling-stroke"/><line x1="1989.0" y1="1296.0" x2="1989.0" y2="1359.0" stroke="black" stroke-width="3" vector-effect="non-scaling-stroke"/><line x1="1989.0" y1="1359.0" x2="2025.0" y2="1359.0" stroke="black" stroke-width="3" vector-effect="non-scaling-stroke"/><line x1="2025.0" y1="1359.0" x2="2025.0" y2="1521.0" stroke="black" stroke-width="3" vector-effect="non-scaling-stroke"/><line x1="2025.0" y1="1521.0" x2="1962.0" y2="1584.0" stroke="black" stroke-width="3" vector-effect="non-scaling-stroke"/><line x1="1962.0" y1="1584.0" x2="1764.0" y2="1584.0" stroke="black" stroke-width="3" vector-effect="non-scaling-stroke"/><line x1="1764.0" y1="1584.0" x2="1710.0" y2="1530.0" stroke="black" stroke-width="3" vector-effect="non-scaling-stroke"/><line x1="1710.0" y1="1530.0" x2="1710.0" y2="1359.0" stroke="black" stroke-width="3" vector-effect="non-scaling-stroke"/><line x1="1710.0" y1="1359.0" x2="1890.0" y2="1359.0" stroke="black" stroke-width="3" vector-effect="non-scaling-stroke"/><line x1="1890.0" y1="1359.0" x2="1890.0" y2="1296.0" stroke="black" stroke-width="3" vector-effect="non-scaling-stroke"/><line x1="1890.0" y1="1296.0" x2="1674.0" y2="1296.0" stroke="black" stroke-width="3" vector-effect="non-scaling-stroke"/><line x1="1674.0" y1="1296.0" x2="1674.0" y2="1593.0" stroke="black" stroke-width="3" vector-effect="non-scaling-stroke"/><line x1="1674.0" y1="1593.0" x2="1422.0" y2="1593.0" stroke="black" stroke-width="3" vector-effect="non-scaling-stroke"/><line x1="1422.0" y1="1593.0" x2="1296.0" y2="1467.0" stroke="black" stroke-width="3" vector-effect="non-scaling-stroke"/><line x1="1296.0" y1="1467.0" x2="1296.0" y2="1449.0" stroke="black" stroke-width="3" vector-effect="non-scaling-stroke"/><line x1="1296.0" y1="1449.0" x2="801.0" y2="1449.0" stroke="black" stroke-width="3" vector-effect="non-scaling-stroke"/><line x1="801.0" y1="1449.0" x2="801.0" y2="1269.0" stroke="black" stroke-width="3" vector-effect="non-scaling-stroke"/><line x1="801.0" y1="1269.0" x2="675.0" y2="1269.0" stroke="black" stroke-width="3" vector-effect="non-scaling-stroke"/><line x1="675.0" y1="1269.0" x2="675.0" y2="1368.0" stroke="black" stroke-width="3" vector-effect="non-scaling-stroke"/><line x1="675.0" y1="1368.0" x2="459.0" y2="1368.0" stroke="black" stroke-width="3" vector-effect="non-scaling-stroke"/><line x1="459.0" y1="1368.0" x2="378.0" y2="1305.0" stroke="black" stroke-width="3" vector-effect="non-scaling-stroke"/><line x1="378.0" y1="1305.0" x2="378.0" y2="1044.0" stroke="black" stroke-width="3" vector-effect="non-scaling-stroke"/><line x1="378.0" y1="1044.0" x2="495.0" y2="1044.0" stroke="black" stroke-width="3" vector-effect="non-scaling-stroke"/><line x1="495.0" y1="1044.0" x2="495.0" y2="873.0" stroke="black" stroke-width="3" vector-effect="non-scaling-stroke"/><line x1="495.0" y1="873.0" x2="405.0" y2="873.0" stroke="black" stroke-width="3" vector-effect="non-scaling-stroke"/><line x1="405.0" y1="873.0" x2="405.0" y2="945.0" stroke="black" stroke-width="3" vector-effect="non-scaling-stroke"/><line x1="405.0" y1="945.0" x2="297.0" y2="945.0" stroke="black" stroke-width="3" vector-effect="non-scaling-stroke"/><line x1="297.0" y1="945.0" x2="297.0" y2="1053.0" stroke="black" stroke-width="3" vector-effect="non-scaling-stroke"/><line x1="297.0" y1="1053.0" x2="225.0" y2="1053.0" stroke="black" stroke-width="3" vector-effect="non-scaling-stroke"/><line x1="225.0" y1="1053.0" x2="135.0" y2="990.0" stroke="black" stroke-width="3" vector-effect="non-scaling-stroke"/><line x1="1926.0" y1="459.0" x2="2061.0" y2="459.0" stroke="black" stroke-width="3" vector-effect="non-scaling-stroke"/><line x1="2061.0" y1="459.0" x2="2061.0" y2="486.0" stroke="black" stroke-width="3" vector-effect="non-scaling-stroke"/><line x1="2061.0" y1="486.0" x2="2124.0" y2="540.0" stroke="black" stroke-width="3" vector-effect="non-scaling-stroke"/><line x1="2124.0" y1="540.0" x2="2160.0" y2="540.0" stroke="black" stroke-width="3" vector-effect="non-scaling-stroke"/><line x1="2160.0" y1="540.0" x2="2160.0" y2="612.0" stroke="black" stroke-width="3" vector-effect="non-scaling-stroke"/><line x1="2160.0" y1="612.0" x2="2106.0" y2="612.0" stroke="black" stroke-width="3" vector-effect="non-scaling-stroke"/><line x1="2106.0" y1="612.0" x2="2106.0" y2="585.0" stroke="black" stroke-width="3" vector-effect="non-scaling-stroke"/><line x1="2106.0" y1="585.0" x2="1971.0" y2="585.0" stroke="black" stroke-width="3" vector-effect="non-scaling-stroke"/><line x1="1971.0" y1="585.0" x2="1971.0" y2="612.0" stroke="black" stroke-width="3" vector-effect="non-scaling-stroke"/><line x1="1971.0" y1="612.0" x2="1872.0" y2="720.0" stroke="black" stroke-width="3" vector-effect="non-scaling-stroke"/><line x1="1872.0" y1="720.0" x2="1872.0" y2="810.0" stroke="black" stroke-width="3" vector-effect="non-scaling-stroke"/><line x1="1872.0" y1="810.0" x2="2106.0" y2="810.0" stroke="black" stroke-width="3" vector-effect="non-scaling-stroke"/><line x1="2106.0" y1="810.0" x2="2106.0" y2="738.0" stroke="black" stroke-width="3" vector-effect="non-scaling-stroke"/><line x1="2106.0" y1="738.0" x2="2313.0" y2="738.0" stroke="black" stroke-width="3" vector-effect="non-scaling-stroke"/><line x1="2313.0" y1="738.0" x2="2313.0" y2="810.0" stroke="black" stroke-width="3" vector-effect="non-scaling-stroke"/><line x1="2313.0" y1="810.0" x2="2169.0" y2="810.0" stroke="black" stroke-width="3" vector-effect="non-scaling-stroke"/><line x1="2169.0" y1="810.0" x2="2169.0" y2="1098.0" stroke="black" stroke-width="3" vector-effect="non-scaling-stroke"/><line x1="2169.0" y1="1098.0" x2="2115.0" y2="1098.0" stroke="black" stroke-width="3" vector-effect="non-scaling-stroke"/><line x1="2115.0" y1="1098.0" x2="2061.0" y2="1170.0" stroke="black" stroke-width="3" vector-effect="non-scaling-stroke"/><line x1="2061.0" y1="1170.0" x2="2061.0" y2="1188.0" stroke="black" stroke-width="3" vector-effect="non-scaling-stroke"/><line x1="2061.0" y1="1188.0" x2="1674.0" y2="1188.0" stroke="black" stroke-width="3" vector-effect="non-scaling-stroke"/><line x1="1674.0" y1="1188.0" x2="1674.0" y2="1017.0" stroke="black" stroke-width="3" vector-effect="non-scaling-stroke"/><line x1="1674.0" y1="1017.0" x2="1620.0" y2="1017.0" stroke="black" stroke-width="3" vector-effect="non-scaling-stroke"/><line x1="1620.0" y1="1017.0" x2="1620.0" y2="972.0" stroke="black" stroke-width="3" vector-effect="non-scaling-stroke"/><line x1="1620.0" y1="972.0" x2="1746.0" y2="972.0" stroke="black" stroke-width="3" vector-effect="non-scaling-stroke"/><line x1="1746.0" y1="972.0" x2="1746.0" y2="1143.0" stroke="black" stroke-width="3" vector-effect="non-scaling-stroke"/><line x1="1746.0" y1="1143.0" x2="1998.0" y2="1143.0" stroke="black" stroke-width="3" vector-effect="non-scaling-stroke"/><line x1="1998.0" y1="1143.0" x2="2052.0" y2="1080.0" stroke="black" stroke-width="3" vector-effect="non-scaling-stroke"/><line x1="2052.0" y1="1080.0" x2="2052.0" y2="855.0" stroke="black" stroke-width="3" vector-effect="non-scaling-stroke"/><line x1="2052.0" y1="855.0" x2="1620.0" y2="855.0" stroke="black" stroke-width="3" vector-effect="non-scaling-stroke"/><line x1="1620.0" y1="855.0" x2="1620.0" y2="765.0" stroke="black" stroke-width="3" vector-effect="non-scaling-stroke"/><line x1="1620.0" y1="765.0" x2="1764.0" y2="765.0" stroke="black" stroke-width="3" vector-effect="non-scaling-stroke"/><line x1="1764.0" y1="765.0" x2="1926.0" y2="603.0" stroke="black" stroke-width="3" vector-effect="non-scaling-stroke"/><line x1="1926.0" y1="603.0" x2="1926.0" y2="459.0" stroke="black" stroke-width="3" vector-effect="non-scaling-stroke"/><line x1="675.0" y1="459.0" x2="990.0" y2="459.0" stroke="black" stroke-width="3" vector-effect="non-scaling-stroke"/><line x1="990.0" y1="459.0" x2="990.0" y2="513.0" stroke="black" stroke-width="3" vector-effect="non-scaling-stroke"/><line x1="990.0" y1="513.0" x2="909.0" y2="513.0" stroke="black" stroke-width="3" vector-effect="non-scaling-stroke"/><line x1="909.0" y1="513.0" x2="909.0" y2="792.0" stroke="black" stroke-width="3" vector-effect="non-scaling-stroke"/><line x1="909.0" y1="792.0" x2="954.0" y2="855.0" stroke="black" stroke-width="3" vector-effect="non-scaling-stroke"/><line x1="954.0" y1="855.0" x2="1287.0" y2="855.0" stroke="black" stroke-width="3" vector-effect="non-scaling-stroke"/><line x1="1287.0" y1="855.0" x2="1287.0" y2="774.0" stroke="black" stroke-width="3" vector-effect="non-scaling-stroke"/><line x1="1287.0" y1="774.0" x2="1179.0" y2="666.0" stroke="black" stroke-width="3" vector-effect="non-scaling-stroke"/><line x1="1179.0" y1="666.0" x2="1179.0" y2="513.0" stroke="black" stroke-width="3" vector-effect="non-scaling-stroke"/><line x1="1179.0" y1="513.0" x2="1089.0" y2="513.0" stroke="black" stroke-width="3" vector-effect="non-scaling-stroke"/><line x1="1089.0" y1="513.0" x2="1089.0" y2="459.0" stroke="black" stroke-width="3" vector-effect="non-scaling-stroke"/><line x1="1089.0" y1="459.0" x2="1215.0" y2="459.0" stroke="black" stroke-width="3" vector-effect="non-scaling-stroke"/><line x1="1215.0" y1="459.0" x2="1215.0" y2="612.0" stroke="black" stroke-width="3" vector-effect="non-scaling-stroke"/><line x1="1215.0" y1="612.0" x2="1386.0" y2="765.0" stroke="black" stroke-width="3" vector-effect="non-scaling-stroke"/><line x1="1386.0" y1="765.0" x2="1521.0" y2="765.0" stroke="black" stroke-width="3" vector-effect="non-scaling-stroke"/><line x1="1521.0" y1="765.0" x2="1521.0" y2="1008.0" stroke="black" stroke-width="3" vector-effect="non-scaling-stroke"/><line x1="1521.0" y1="1008.0" x2="1386.0" y2="1008.0" stroke="black" stroke-width="3" vector-effect="non-scaling-stroke"/><line x1="1386.0" y1="1008.0" x2="1287.0" y2="1107.0" stroke="black" stroke-width="3" vector-effect="non-scaling-stroke"/><line x1="1287.0" y1="1107.0" x2="1287.0" y2="1323.0" stroke="black" stroke-width="3" vector-effect="non-scaling-stroke"/><line x1="1287.0" y1="1323.0" x2="1062.0" y2="1323.0" stroke="black" stroke-width="3" vector-effect="non-scaling-stroke"/><line x1="1062.0" y1="1323.0" x2="1062.0" y2="1269.0" stroke="black" stroke-width="3" vector-effect="non-scaling-stroke"/><line x1="1062.0" y1="1269.0" x2="1152.0" y2="1269.0" stroke="black" stroke-width="3" vector-effect="non-scaling-stroke"/><line x1="1152.0" y1="1269.0" x2="1206.0" y2="1215.0" stroke="black" stroke-width="3" vector-effect="non-scaling-stroke"/><line x1="1206.0" y1="1215.0" x2="1206.0" y2="1080.0" stroke="black" stroke-width="3" vector-effect="non-scaling-stroke"/><line x1="1206.0" y1="1080.0" x2="1287.0" y2="1008.0" stroke="black" stroke-width="3" vector-effect="non-scaling-stroke"/><line x1="1287.0" y1="1008.0" x2="1287.0" y2="927.0" stroke="black" stroke-width="3" vector-effect="non-scaling-stroke"/><line x1="1287.0" y1="927.0" x2="963.0" y2="927.0" stroke="black" stroke-width="3" vector-effect="non-scaling-stroke"/><line x1="963.0" y1="927.0" x2="963.0" y2="1323.0" stroke="black" stroke-width="3" vector-effect="non-scaling-stroke"/><line x1="963.0" y1="1323.0" x2="900.0" y2="1323.0" stroke="black" stroke-width="3" vector-effect="non-scaling-stroke"/><line x1="900.0" y1="1323.0" x2="900.0" y2="1143.0" stroke="black" stroke-width="3" vector-effect="non-scaling-stroke"/><line x1="900.0" y1="1143.0" x2="675.0" y2="1143.0" stroke="black" stroke-width="3" vector-effect="non-scaling-stroke"/><line x1="675.0" y1="1143.0" x2="675.0" y2="1044.0" stroke="black" stroke-width="3" vector-effect="non-scaling-stroke"/><line x1="675.0" y1="1044.0" x2="603.0" y2="1044.0" stroke="black" stroke-width="3" vector-effect="non-scaling-stroke"/><line x1="603.0" y1="1044.0" x2="603.0" y2="873.0" stroke="black" stroke-width="3" vector-effect="non-scaling-stroke"/><line x1="603.0" y1="873.0" x2="702.0" y2="873.0" stroke="black" stroke-width="3" vector-effect="non-scaling-stroke"/><line x1="702.0" y1="873.0" x2="702.0" y2="954.0" stroke="black" stroke-width="3" vector-effect="non-scaling-stroke"/><line x1="702.0" y1="954.0" x2="864.0" y2="954.0" stroke="black" stroke-width="3" vector-effect="non-scaling-stroke"/><line x1="864.0" y1="954.0" x2="864.0" y2="657.0" stroke="black" stroke-width="3" vector-effect="non-scaling-stroke"/><line x1="864.0" y1="657.0" x2="819.0" y2="612.0" stroke="black" stroke-width="3" vector-effect="non-scaling-stroke"/><line x1="819.0" y1="612.0" x2="756.0" y2="612.0" stroke="black" stroke-width="3" vector-effect="non-scaling-stroke"/><line x1="756.0" y1="612.0" x2="702.0" y2="666.0" stroke="black" stroke-width="3" vector-effect="non-scaling-stroke"/><line x1="702.0" y1="666.0" x2="702.0" y2="747.0" stroke="black" stroke-width="3" vector-effect="non-scaling-stroke"/><line x1="702.0" y1="747.0" x2="603.0" y2="747.0" stroke="black" stroke-width="3" vector-effect="non-scaling-stroke"/><line x1="603.0" y1="747.0" x2="603.0" y2="585.0" stroke="black" stroke-width="3" vector-effect="non-scaling-stroke"/><line x1="603.0" y1="585.0" x2="675.0" y2="585.0" stroke="black" stroke-width="3" vector-effect="non-scaling-stroke"/><line x1="675.0" y1="585.0" x2="675.0" y2="459.0" stroke="black" stroke-width="3" vector-effect="non-scaling-stroke"/></svg>